<?xml version="1.0" encoding="utf-8"?>
<!-- Generator: Adobe Illustrator 27.1.1, SVG Export Plug-In . SVG Version: 6.00 Build 0)  -->
<svg version="1.1" id="Layer_1" xmlns="http://www.w3.org/2000/svg" xmlns:xlink="http://www.w3.org/1999/xlink" x="0px" y="0px"
	 viewBox="0 0 1019.4 452.7" style="enable-background:new 0 0 1019.4 452.7;" xml:space="preserve">
<style type="text/css">
	.st0{fill:#FFFFFF;}
</style>
<g>
	<g>
		<path class="st0" d="M1012.4,320.2h-48l49.8-153.9c1.4-4.6-1.1-7.8-5.6-7.8H905.1c-4.2,0-6.7,2.5-6.7,6.7v26.1
			c0,4.2,2.5,6.7,6.7,6.7h42.4L897.3,352c-1.4,4.6,1.1,7.8,6,7.8h109.1c4.2,0,6.7-2.5,6.7-6.7v-26.1
			C1019.1,322.7,1016.6,320.2,1012.4,320.2"/>
		<path class="st0" d="M882.8,328.4V165.3c0-4.2-2.5-6.7-6.7-6.7h-39.9c-4.6,0-7.1,2.5-7.1,6.7v14.1h-3.9
			c-3.5-14.8-14.1-23.3-33.5-23.3c-29.3,0-45.9,19.1-45.9,82.2v42c0,63.2,16.2,81.9,45.9,81.9c21.2,0,32.8-9.9,36-28.2h4.2l4.6,19.8
			c1.1,3.9,3.5,6,7.4,6h37.1c4.9,0,6.7-3.2,6-7.4L882.8,328.4z M829.2,290.9c0,26.1-4.2,31.8-14.5,31.8c-9.9,0-14.1-5.6-14.1-31.4
			v-66.4c0-26.1,4.6-31.8,14.1-31.8c10.2,0,14.5,5.6,14.5,32.1V290.9z"/>
		<path class="st0" d="M728.6,158.9l-38.5,27.5h-2.5v-21.2c0-4.2-2.5-6.7-6.7-6.7h-37.8c-4.2,0-6.7,2.5-6.7,6.7v187.8
			c0,4.2,2.5,6.7,6.7,6.7h40.2c4.6,0,6.7-2.5,6.7-6.7V240.5l42.4-30.4c3.2-2.5,4.2-4.6,4.2-8.1v-38.8
			C736.7,157.9,732.8,155.7,728.6,158.9"/>
		<path class="st0" d="M616.7,328.4V165.3c0-4.2-2.5-6.7-6.7-6.7h-39.9c-4.6,0-7.1,2.5-7.1,6.7v14.1h-3.9
			c-3.5-14.8-14.1-23.3-33.5-23.3c-29.3,0-45.9,19.1-45.9,82.2v42c0,63.2,16.2,81.9,45.9,81.9c21.2,0,32.8-9.9,36-28.2h4.2l4.6,19.8
			c1.1,3.9,3.5,6,7.4,6h37.1c4.9,0,6.7-3.2,6-7.4L616.7,328.4z M563,290.9c0,26.1-4.2,31.8-14.5,31.8c-9.9,0-14.1-5.6-14.1-31.4
			v-66.4c0-26.1,4.6-31.8,14.1-31.8c10.2,0,14.5,5.6,14.5,32.1V290.9z"/>
		<path class="st0" d="M379.2,91.5h-57.9c-4.6,0-6.7,2.5-6.7,6.7v254.8c0,4.2,2.1,6.7,6.7,6.7h57.9c57.5,0,84-26.1,84-116.5V208
			C463.2,115.2,434.9,91.5,379.2,91.5 M406.7,268c0,39.5-7.4,47.3-26.1,47.3H370V134.9h10.6c18.7,0,26.1,6.7,26.1,47.3V268z"/>
	</g>
	<path class="st0" d="M226.3,86.6l-99.4-57.3c-5.8-3.5-10.5-1.2-10.5,5.8v122.1l98.9,57c5.8,3.5,5.8,8.7,0,12.2l-88.4,50.9
		c-5.8,3.5-10.5,1.2-10.5-5.8V157.3L6.4,220.6c-4.4,2.6-6.1,5.5-6.1,10.5v121.5c0,4.9,1.7,7.9,6.1,10.5L110.2,423
		c4.4,2.6,7.9,2.6,12.2,0l103.8-59.9c4.4-2.6,6.1-5.5,6.1-10.5V97.1C232.4,92.1,230.6,89.2,226.3,86.6"/>
</g>
</svg>
